# xmcd
#
# Track frame offsets:
#	150
#	13940
#	26372
#	40962
#	53512
#	66742
#	77487
#	95847
#	109942
#	123122
#	136570
#	150537
#	167167
#	182490
#	189562
#	209210
#
# Disc length: 2951 seconds
#
# Revision: 0
# Processed by: cddbd v1.5.2PL0 Copyright (c) Steve Scherf et al.
# Submitted via: audiograbber 1.83.01
#
DISCID=d80b8510
DTITLE=Various Artist - Weihnacht mit den volkstümlichen Superstars
DYEAR=1900
DGENRE=Volksmusik/Christmas
TTITLE0=Patrick Lindner - Weil's Christkind Bald Geburtstag hat
TTITLE1=Hans Liner Band - Schaukelpferd
TTITLE2=Hahnenkamm Trio and Die Kitzbühler Dirndln - Die Glocken der Heiligen Nac
TTITLE2=ht
TTITLE3=Nockalm Quintett - Leise Rieselt der Schnee
TTITLE4=Schwarzwald Quintett -  Das Sind die Wünsche der Kinder
TTITLE5=Wolfgang Lindner Band  - Jingle Bells
TTITLE6=Calimeros - Weihnachtsabend
TTITLE7=Uschi Bauer - Still, Still, Still, Weil das Kindlein schlafen will
TTITLE8=Atlantis - Advent im Stillen
TTITLE9=Olympiachor Axams and Tiroler Herzensbrecher - Fröhliche Schlittenfahrt
TTITLE10=Zillertaler Schürzenjäger - Misteln Vom Bam
TTITLE11=Braco Koren - Der Kleine Trommler
TTITLE12=High Life Family - Süsser die Glocken Nie Klingen
TTITLE13=Simone - Kling, Glöckchen Kling
TTITLE14=Tiroler Alpenkavaliere - Hirtentraum
TTITLE15=Pedro's - Weihnacht Daheim
EXTD=
EXTT0=
EXTT1=
EXTT2=
EXTT3=
EXTT4=
EXTT5=
EXTT6=
EXTT7=
EXTT8=
EXTT9=
EXTT10=
EXTT11=
EXTT12=
EXTT13=
EXTT14=
EXTT15=
PLAYORDER=
